<?xml version="1.0" encoding="iso-8859-1"?>
<!-- Generator: Adobe Illustrator 19.0.0, SVG Export Plug-In . SVG Version: 6.00 Build 0)  -->
<svg version="1.1" id="Layer_1" xmlns="http://www.w3.org/2000/svg" xmlns:xlink="http://www.w3.org/1999/xlink" x="0px" y="0px"
	 viewBox="0 0 511.986 511.986" style="enable-background:new 0 0 511.986 511.986;" xml:space="preserve">
<path style="fill:#CCD1D9;" d="M147.202,21.328c-29.499,0-55.67,78.904-55.67,78.904h111.356
	C202.889,100.232,176.701,21.328,147.202,21.328z"/>
<path style="fill:#FC6E51;" d="M202.67,163.558V85.326H96.001v78.811C39.83,182.199,0.003,244.416,0.003,316.945
	c0,62.076,29.187,165.168,72.826,195.041h154.84c43.624-29.873,72.81-132.965,72.81-195.041
	C300.479,243.635,259.794,181.168,202.67,163.558z"/>
<g style="opacity:0.2;">
	<path style="fill:#FFFFFF;" d="M202.67,163.558V85.326h-21.343v78.232c57.124,17.609,97.826,80.076,97.826,153.387
		c0,62.076-29.187,165.168-72.826,195.041h21.343c43.624-29.873,72.81-132.965,72.81-195.041
		C300.479,243.635,259.794,181.168,202.67,163.558z"/>
</g>
<path style="fill:#E6E9ED;" d="M474.132,298.648h-47.843h-47.843c-40.592,47.421-37.827,113.779-37.827,113.779
	s4,56.732,85.67,56.889c81.653-0.156,85.653-56.889,85.653-56.889S514.723,346.069,474.132,298.648z"/>
<rect x="415.613" y="457.993" style="fill:#CCD1D9;" width="21.343" height="43.33"/>
<path style="fill:#E6E9ED;" d="M468.944,490.643h-85.326c-5.891,0-10.672,4.781-10.672,10.672s4.781,10.671,10.672,10.671h85.326
	c5.906,0,10.672-4.78,10.672-10.671S474.85,490.643,468.944,490.643z"/>
<path style="fill:#FC6E51;" d="M340.619,412.428c0,0,4,56.732,85.67,56.889c81.653-0.156,85.653-56.889,85.653-56.889
	s0.484-11.547-1.891-28.438H342.525C340.15,400.881,340.619,412.428,340.619,412.428z"/>
<path style="fill:#E6E9ED;" d="M213.326,42.655c0,11.781-9.546,21.344-21.327,21.344h-85.326c-11.781,0-21.343-9.562-21.343-21.344
	V21.328C85.33,9.547,94.892,0,106.673,0h85.326c11.781,0,21.327,9.547,21.327,21.328V42.655z"/>
<path style="fill:#434A54;" d="M213.326,298.648c0,0-6.406-42.655-63.998-42.655c-57.577,0-64.014,42.655-64.014,42.655v127.997
	h128.012L213.326,298.648L213.326,298.648z"/>
<path style="fill:#E9573F;" d="M202.67,85.326H96.001c-5.891,0-10.672,4.781-10.672,10.672c0,5.891,4.781,10.656,10.672,10.656
	H202.67c5.891,0,10.656-4.766,10.656-10.656S208.56,85.326,202.67,85.326z"/>
<g style="opacity:0.2;">
	<path style="fill:#FFFFFF;" d="M474.132,298.648h-21.328c40.577,47.421,37.812,113.779,37.812,113.779s-3.656,51.686-74.998,56.529
		c3.406,0.219,6.953,0.344,10.672,0.359c81.653-0.156,85.653-56.889,85.653-56.889S514.723,346.069,474.132,298.648z"/>
</g>
<g>
</g>
<g>
</g>
<g>
</g>
<g>
</g>
<g>
</g>
<g>
</g>
<g>
</g>
<g>
</g>
<g>
</g>
<g>
</g>
<g>
</g>
<g>
</g>
<g>
</g>
<g>
</g>
<g>
</g>
</svg>
