<?xml version="1.0" encoding="iso-8859-1"?>
<!-- Generator: Adobe Illustrator 19.0.0, SVG Export Plug-In . SVG Version: 6.00 Build 0)  -->
<svg version="1.1" id="Layer_1" xmlns="http://www.w3.org/2000/svg" xmlns:xlink="http://www.w3.org/1999/xlink" x="0px" y="0px"
	 viewBox="0 0 512 512" style="enable-background:new 0 0 512 512;" xml:space="preserve">
<path style="fill:#FFCC85;" d="M297.636,112.603L297.636,112.603V63.694c0-3.556,2.883-6.44,6.44-6.44l0,0
	c3.556,0,6.44-2.883,6.44-6.44V16.639c0-3.556-2.883-6.44-6.44-6.44h-96.15c-3.556,0-6.44,2.883-6.44,6.44v34.175
	c0,3.556,2.883,6.44,6.44,6.44l0,0c3.556,0,6.44,2.883,6.44,6.44v48.909l0,0c-49.136,0-88.968,39.832-88.968,88.968v211.262
	c0,49.136,39.832,88.968,88.968,88.968h83.27c49.136,0,88.968-39.832,88.968-88.968V201.571
	C386.603,152.435,346.771,112.603,297.636,112.603z"/>
<rect x="125.4" y="222.312" style="fill:#EDDABF;" width="261.212" height="169.786"/>
<path style="fill:#FF5E8A;" d="M296.515,311.317c0-31.98-14.644-33.623-40.514-33.623s-40.514,1.643-40.514,33.623
	c0,17.516,20.213,40.514,40.514,40.514S296.515,328.835,296.515,311.317z"/>
<g>
	<path style="fill:#570029;" d="M115.197,412.833c0,54.681,44.486,99.167,99.167,99.167h83.271
		c54.681,0,99.167-44.486,99.167-99.167V201.571c0-51.237-39.062-93.523-88.968-98.647V67.025c7.371-1.708,12.88-8.329,12.88-16.212
		V16.639C320.714,7.464,313.251,0,304.075,0h-96.149c-9.175,0-16.639,7.464-16.639,16.639v34.175c0,7.883,5.509,14.502,12.88,16.212
		v35.899c-49.907,5.124-88.968,47.41-88.968,98.647v211.261H115.197z M214.365,122.802c5.632,0,10.199-4.566,10.199-10.199V63.694
		c0-7.883-5.51-14.502-12.88-16.211V20.398h88.631v27.085c-7.37,1.708-12.88,8.329-12.88,16.211v48.909
		c0,5.633,4.567,10.199,10.199,10.199c43.433,0,78.768,35.335,78.768,78.768v10.54H135.596v-10.54
		C135.596,158.138,170.932,122.802,214.365,122.802z M376.405,381.895H135.596V232.509h240.808v149.386H376.405z M297.636,491.602
		h-83.271c-43.433,0-78.768-35.335-78.768-78.768v-10.54h240.808v10.54C376.405,456.266,341.069,491.602,297.636,491.602z"/>
	<path style="fill:#570029;" d="M256.001,362.031c12.165,0,25.009-6.138,35.241-16.839c9.688-10.132,15.472-22.795,15.472-33.875
		c0-36.688-19.709-42.659-39.384-43.631c0.497-1.596,1.053-2.896,1.522-3.453c3.983-3.983,3.983-10.441,0-14.425
		c-3.984-3.983-10.44-3.983-14.425,0c-4.424,4.424-6.923,11.576-8.065,17.806c-20.22,0.727-41.075,5.966-41.075,43.704
		C205.287,333.671,229.164,362.031,256.001,362.031z M231.537,291.107c4.641-2.967,14.22-3.213,24.464-3.213
		s19.824,0.246,24.464,3.213c1.6,1.023,5.85,3.74,5.85,20.211c0,12.245-15.968,30.315-30.315,30.315
		c-6.525,0-14.189-3.939-20.498-10.538c-5.963-6.237-9.817-14-9.817-19.777C225.685,294.847,229.935,292.13,231.537,291.107z"/>
	<path style="fill:#570029;" d="M230.503,202.964h4.08c5.632,0,10.199-4.566,10.199-10.199c0-5.633-4.567-10.199-10.199-10.199
		h-4.08c-5.632,0-10.199,4.566-10.199,10.199C220.303,198.398,224.87,202.964,230.503,202.964z"/>
	<path style="fill:#570029;" d="M159.108,202.964h36.717c5.632,0,10.199-4.566,10.199-10.199c0-5.633-4.567-10.199-10.199-10.199
		h-36.717c-5.632,0-10.199,4.566-10.199,10.199C148.909,198.398,153.476,202.964,159.108,202.964z"/>
</g>
<g>
</g>
<g>
</g>
<g>
</g>
<g>
</g>
<g>
</g>
<g>
</g>
<g>
</g>
<g>
</g>
<g>
</g>
<g>
</g>
<g>
</g>
<g>
</g>
<g>
</g>
<g>
</g>
<g>
</g>
</svg>
